{"title":"Jupiter Ascending 2015 HQCAM NEW AUDIO XviD AC3 MURD3R","uid":11717462,"size":1835274163,"categoryP":"video","categoryS":"movies","magnet":"?xt=urn:btih:f6a3b22a6c97b88b96470aea5bb5d46053c4a31a&amp;dn=Jupiter+Ascending+2015+HQCAM+NEW+AUDIO+XviD+AC3+MURD3R&amp;tr=udp%3A%2F%2Ftracker.openbittorrent.com%3A80&amp;tr=udp%3A%2F%2Fopen.demonii.com%3A1337&amp;tr=udp%3A%2F%2Ftracker.coppersurfer.tk%3A6969&amp;tr=udp%3A%2F%2Fexodus.desync.com%3A6969","seeders":9,"leechers":2,"uploader":".BONE.","files":9,"time":1424651876,"description":"Jupiter Ascending 2015 HQCAM NEW AUDIO XviD AC3 MURD3R.avi\n\nFormat : AVI\nFormat/Info : Audio Video Interleave\nFile size : 1.70 GiB\nDuration : 1h 52mn\nOverall bit rate : 2 163 Kbps\n\nVideo\nID : 0\nFormat : MPEG-4 Visual\nFormat profile : Advanced Simple@L5\nFormat settings, BVOP : 2\nFormat settings, QPel : No\nFormat settings, GMC : No warppoints\nFormat settings, Matrix : Default (H.263)\nCodec ID : XVID\nCodec ID/Hint : XviD\nDuration : 1h 52mn\nBit rate : 1 962 Kbps\nWidth : 720 pixels\nHeight : 384 pixels\nDisplay aspect ratio : 1.85:1\nFrame rate : 23.976 fps\nColor space : YUV\nChroma subsampling : 4:2:0\nBit depth : 8 bits\nScan type : Progressive\nCompression mode : Lossy\nBits/(Pixel*Frame) : 0.296\nStream size : 1.54 GiB (91%)\nWriting library : XviD 65\n\nAudio\nID : 1\nFormat : AC-3\nFormat/Info : Audio Coding 3\nMode extension : CM (complete main)\nFormat settings, Endianness : Big\nCodec ID : 2000\nDuration : 1h 52mn\nBit rate mode : Constant\nBit rate : 192 Kbps\nChannel(s) : 2 channels\nChannel positions : Front: L R\nSampling rate : 32.0 KHz\nBit depth : 16 bits\nCompression mode : Lossy\nStream size : 154 MiB (9%)\nAlignment : Aligned on interleaves\nInterleave, duration : 48 ms (1.15 video frame)\n\nAUDIO SOURCE WAS.............LaS...THANK..U..\nSAMPLE INCLUDED\n &lt;a href=&quot;\nhttp://s20.postimage.org/6ajnc1rst/vlcsnap_2015_02_21_00h28m52s56.png&quot; rel=&quot;nofollow&quot; target=&quot;_NEW&quot;&gt;\nhttp://s20.postimage.org/6ajnc1rst/vlcsnap_2015_02_21_00h28m52s56.png&lt;/a&gt; &lt;a href=&quot;\nhttp://s20.postimage.org/ccra2jg8t/vlcsnap_2015_02_21_00h33m43s154.png&quot; rel=&quot;nofollow&quot; target=&quot;_NEW&quot;&gt;\nhttp://s20.postimage.org/ccra2jg8t/vlcsnap_2015_02_21_00h33m43s154.png&lt;/a&gt; &lt;a href=&quot;\nhttp://s20.postimage.org/f84d9ek8t/vlcsnap_2015_02_21_00h33m53s1.png&quot; rel=&quot;nofollow&quot; target=&quot;_NEW&quot;&gt;\nhttp://s20.postimage.org/f84d9ek8t/vlcsnap_2015_02_21_00h33m53s1.png&lt;/a&gt; &lt;a href=&quot;\nhttp://s20.postimage.org/ek0447awt/vlcsnap_2015_02_21_00h32m27s168.png&quot; rel=&quot;nofollow&quot; target=&quot;_NEW&quot;&gt;\nhttp://s20.postimage.org/ek0447awt/vlcsnap_2015_02_21_00h32m27s168.png&lt;/a&gt;","torrent":{"xt":"urn:btih:f6a3b22a6c97b88b96470aea5bb5d46053c4a31a","amp;dn":"Jupiter+Ascending+2015+HQCAM+NEW+AUDIO+XviD+AC3+MURD3R","amp;tr":["udp%3A%2F%2Ftracker.openbittorrent.com%3A80","udp%3A%2F%2Fopen.demonii.com%3A1337","udp%3A%2F%2Ftracker.coppersurfer.tk%3A6969","udp%3A%2F%2Fexodus.desync.com%3A6969"],"infoHash":"f6a3b22a6c97b88b96470aea5bb5d46053c4a31a","infoHashBuffer":{"type":"Buffer","data":[246,163,178,42,108,151,184,139,150,71,10,234,91,181,212,96,83,196,163,26]},"announce":[],"urlList":[]}}